<svg width="20" height="19" viewBox="0 0 20 19" fill="none" xmlns="http://www.w3.org/2000/svg">
<path d="M9.42918 1.69532C9.67076 1.0004 9.7915 0.652951 9.97015 0.556652C10.1247 0.473304 10.3108 0.473304 10.4654 0.556652C10.644 0.652951 10.7647 1.0004 11.0063 1.69532L12.6032 6.28944C12.672 6.48722 12.7063 6.58611 12.7683 6.65975C12.823 6.72481 12.8928 6.77552 12.9716 6.80745C13.0607 6.84361 13.1654 6.84574 13.3747 6.85L18.2375 6.9491C18.9731 6.96408 19.3408 6.97159 19.4876 7.11168C19.6147 7.23293 19.6721 7.40995 19.6406 7.58271C19.6043 7.78235 19.3112 8.00453 18.7249 8.44908L14.8491 11.3874C14.6822 11.514 14.5988 11.5772 14.5479 11.6588C14.5029 11.731 14.4763 11.8131 14.4703 11.8978C14.4635 11.9938 14.4937 12.094 14.5544 12.2945L15.9628 16.9498C16.1758 17.654 16.2824 18.0061 16.1945 18.189C16.1184 18.3473 15.9679 18.4566 15.7938 18.4801C15.5927 18.5071 15.2908 18.2971 14.6869 17.8768L10.6946 15.0988C10.5227 14.9792 10.4368 14.9194 10.3434 14.8961C10.2609 14.8757 10.1746 14.8757 10.0921 14.8961C9.99875 14.9194 9.91276 14.9792 9.74089 15.0988L5.74863 17.8768C5.14475 18.2971 4.8428 18.5071 4.64171 18.4801C4.46768 18.4566 4.31709 18.3473 4.24103 18.189C4.15314 18.0061 4.25967 17.654 4.47271 16.9498L5.88114 12.2945C5.94177 12.094 5.97208 11.9938 5.96526 11.8978C5.95923 11.8131 5.93257 11.731 5.88761 11.6588C5.83671 11.5772 5.75328 11.514 5.58643 11.3874L1.71064 8.44908C1.12437 8.00453 0.831239 7.78235 0.79485 7.58271C0.763345 7.40995 0.820866 7.23293 0.947897 7.11168C1.09466 6.97159 1.46244 6.9641 2.19799 6.9491L7.06074 6.85C7.27007 6.84574 7.37475 6.84361 7.46393 6.80745C7.54271 6.77552 7.6125 6.72481 7.66722 6.65975C7.72916 6.58611 7.76354 6.48722 7.83229 6.28944L9.42918 1.69532Z" fill="#FFCC00"/>
</svg>
